<svg width="818" height="320" viewBox="0 0 818 320" fill="none" xmlns="http://www.w3.org/2000/svg">
<path d="M91.643 53.565V160.205L183.287 107.295V0.655029L91.643 53.565Z" fill="#E6E6E6"/>
<path d="M0 106.885V213.525L183.287 319.345V212.705L0 106.885Z" fill="#A09BEF"/>
<path d="M91.643 266.435V319.228L183.287 319.345L91.643 266.435Z" fill="#2F2FD3"/>
<path d="M362.104 146.934C359.02 143.508 343.95 134.946 329.394 134.946C316.548 134.946 310.039 139.912 310.039 148.647C310.039 158.579 319.459 161.148 337.786 165.945C361.763 172.109 376.833 179.646 376.833 201.91C376.833 228.114 355.768 238.047 331.791 238.047C313.637 238.047 294.799 232.223 280.754 222.29L291.201 201.91C295.311 206.02 313.637 216.81 332.133 216.81C344.979 216.81 351.658 212.357 351.658 204.309C351.658 193.519 339.154 190.435 320.143 185.298C297.023 178.961 285.72 171.082 285.72 152.415C285.72 127.582 305.415 114.223 330.078 114.223C347.034 114.223 361.932 120.56 372.551 127.753L362.104 146.934Z" fill="#E6E6E6"/>
<path d="M394.812 236.676V115.25H418.447V174.508L471.024 115.079H495.515L448.932 169.027L498.426 236.676H473.423L434.718 182.386L418.446 200.026V236.676H394.812V236.676Z" fill="#E6E6E6"/>
<path d="M509.384 111.653H521.032V216.467C521.032 223.146 524.969 227.086 531.479 227.086C534.048 227.086 537.816 226.401 540.727 225.201L542.782 234.621C538.5 236.334 531.307 237.703 526.683 237.703C516.067 237.703 509.385 231.195 509.385 220.405V111.653H509.384Z" fill="#E6E6E6"/>
<path d="M547.061 211.158C547.061 194.546 562.476 183.756 584.74 183.756C593.646 183.756 603.578 185.469 610.944 188.38V180.33C610.944 164.574 601.181 154.641 585.939 154.641C576.519 154.641 566.928 158.409 557.166 165.26L553.056 157.552C564.531 149.846 575.32 145.907 587.137 145.907C608.717 145.907 622.589 159.265 622.589 181.358V221.606C622.589 224.859 623.787 226.401 626.699 226.401V236.677C624.817 236.848 623.273 237.019 622.075 237.019C617.451 237.019 612.999 234.279 612.657 228.798L612.312 221.777C604.607 232.224 590.563 238.389 577.719 238.389C559.393 238.389 547.061 225.887 547.061 211.158ZM608.033 216.98C609.573 214.925 610.944 212.356 610.944 210.301V195.743C603.236 192.832 594.503 191.119 586.453 191.119C569.839 191.119 558.364 198.312 558.364 210.13C558.364 219.549 565.73 229.483 580.631 229.483C590.905 229.483 602.207 224.688 608.033 216.98Z" fill="#E6E6E6"/>
<path d="M658.38 219.379V236.677H647.933V111.653H659.578V166.116C667.628 154.128 678.761 145.907 693.659 145.907C718.492 145.907 734.08 169.027 734.08 192.318C734.08 217.323 715.581 238.389 691.604 238.389C677.733 238.389 665.059 230.511 658.38 219.379ZM722.091 192.318C722.091 173.651 709.075 156.182 690.407 156.182C676.363 156.182 665.232 166.458 659.579 178.446V206.192C661.464 218.522 677.219 228.114 688.866 228.114C708.388 228.114 722.091 210.645 722.091 192.318Z" fill="#E6E6E6"/>
<path d="M745.725 225.03L751.036 217.153C760.968 225.374 771.245 229.483 783.062 229.483C797.276 229.483 806.697 223.317 806.697 212.7C806.697 202.766 797.791 200.026 779.806 195.744C759.085 190.607 749.835 187.01 749.835 172.966C749.835 154.984 764.908 145.907 783.232 145.907C796.934 145.907 808.579 150.873 815.431 158.066L809.778 164.916C803.099 158.066 792.995 154.64 782.89 154.64C770.731 154.64 760.968 159.607 760.968 171.252C760.968 180.672 767.305 182.727 783.232 186.495C806.183 191.975 818 196.429 818 211.671C818 227.94 804.298 238.388 783.232 238.388C769.36 238.389 755.315 233.765 745.725 225.03Z" fill="#E6E6E6"/>
</svg>
