<?xml version="1.0" encoding="utf-8"?>
<!-- Generator: Adobe Illustrator 21.0.0, SVG Export Plug-In . SVG Version: 6.00 Build 0)  -->
<svg version="1.1" id="Layer_1" xmlns="http://www.w3.org/2000/svg" xmlns:xlink="http://www.w3.org/1999/xlink" x="0px" y="0px"
	 viewBox="0 0 1000 500" enable-background="new 0 0 1000 500" xml:space="preserve">
<g id="Layer_2">
	<g id="Layer_4">
		<g>
			<polygon fill="#E6E6E6" points="182.643,143.565 182.643,250.205 274.287,197.295 274.287,90.655 			"/>
			<polygon fill="#5956E8" points="91,196.885 91,303.525 274.287,409.345 274.287,302.705 			"/>
			<polygon fill="#2F2FD3" points="182.643,356.435 182.643,409.228 274.287,409.345 			"/>
		</g>
	</g>
	<g id="Layer_3">
		<g>
			<path fill="#2F2FD3" d="M453.104,236.934c-3.084-3.426-18.154-11.988-32.71-11.988c-12.846,0-19.355,4.966-19.355,13.701
				c0,9.932,9.42,12.501,27.747,17.298c23.977,6.164,39.047,13.701,39.047,35.965c0,26.204-21.065,36.137-45.042,36.137
				c-18.154,0-36.992-5.824-51.037-15.757l10.447-20.38c4.11,4.11,22.436,14.9,40.932,14.9c12.846,0,19.525-4.453,19.525-12.501
				c0-10.79-12.504-13.874-31.515-19.011c-23.12-6.337-34.423-14.216-34.423-32.883c0-24.833,19.695-38.192,44.358-38.192
				c16.956,0,31.854,6.337,42.473,13.53L453.104,236.934z"/>
			<path fill="#2F2FD3" d="M485.812,326.676V205.25h23.635v59.258l52.577-59.429h24.491l-46.583,53.948l49.494,67.649h-25.003
				l-38.705-54.29l-16.272,17.64v36.65H485.812z"/>
			<path fill="#2F2FD3" d="M600.384,201.653h11.648v104.814c0,6.679,3.937,10.619,10.447,10.619c2.569,0,6.337-0.685,9.248-1.885
				l2.055,9.42c-4.282,1.713-11.475,3.082-16.099,3.082c-10.616,0-17.298-6.508-17.298-17.298V201.653z"/>
			<path fill="#2F2FD3" d="M638.061,301.158c0-16.612,15.415-27.402,37.679-27.402c8.906,0,18.838,1.713,26.204,4.624v-8.05
				c0-15.756-9.763-25.689-25.005-25.689c-9.42,0-19.011,3.768-28.773,10.619l-4.11-7.708c11.475-7.706,22.264-11.645,34.081-11.645
				c21.58,0,35.452,13.358,35.452,35.451v40.248c0,3.253,1.198,4.795,4.11,4.795v10.276c-1.882,0.171-3.426,0.342-4.624,0.342
				c-4.624,0-9.076-2.74-9.418-8.221l-0.345-7.021c-7.705,10.447-21.749,16.612-34.593,16.612
				C650.393,328.389,638.061,315.887,638.061,301.158z M699.033,306.98c1.54-2.055,2.911-4.624,2.911-6.679v-14.558
				c-7.708-2.911-16.441-4.624-24.491-4.624c-16.614,0-28.089,7.193-28.089,19.011c0,9.419,7.366,19.353,22.267,19.353
				C681.905,319.483,693.207,314.688,699.033,306.98z"/>
			<path fill="#2F2FD3" d="M749.38,309.379v17.298h-10.447V201.653h11.645v54.463c8.05-11.988,19.183-20.209,34.081-20.209
				c24.833,0,40.421,23.12,40.421,46.411c0,25.005-18.499,46.071-42.476,46.071C768.733,328.389,756.059,320.511,749.38,309.379z
				 M813.091,282.318c0-18.667-13.016-36.136-31.684-36.136c-14.044,0-25.175,10.276-30.828,22.264v27.746
				c1.885,12.33,17.64,21.922,29.287,21.922C799.388,318.114,813.091,300.645,813.091,282.318z"/>
			<path fill="#2F2FD3" d="M836.725,315.03l5.311-7.877c9.932,8.221,20.209,12.33,32.026,12.33c14.214,0,23.635-6.166,23.635-16.783
				c0-9.934-8.906-12.674-26.891-16.956c-20.721-5.137-29.971-8.734-29.971-22.778c0-17.982,15.073-27.059,33.397-27.059
				c13.702,0,25.347,4.966,32.199,12.159l-5.653,6.85c-6.679-6.85-16.783-10.276-26.888-10.276
				c-12.159,0-21.922,4.967-21.922,16.612c0,9.42,6.337,11.475,22.264,15.243c22.951,5.48,34.768,9.934,34.768,25.176
				c0,16.269-13.702,26.717-34.768,26.717C860.36,328.389,846.315,323.765,836.725,315.03z"/>
		</g>
	</g>
</g>
</svg>
